<svg xmlns="http://www.w3.org/2000/svg" width="256" height="256" viewBox="0 0 100 100"><rect width="100" height="100" rx="50" fill="#f2efea"></rect><path fill="#97abaf" d="M22.65 38.86L28.37 53.74L17.11 53.74L22.65 38.86ZM24.03 35.42L21.23 35.42L10.61 64.66L13.15 64.66L16.37 55.89L29.15 55.89L32.59 64.88L35.21 64.45L24.03 35.42ZM50.99 65.27L50.99 65.27Q47.12 65.27 44.09 63.33Q41.06 61.39 39.31 57.98Q37.57 54.56 37.57 50.17L37.57 50.17Q37.57 45.79 39.34 42.32Q41.10 38.86 44.20 36.84Q47.29 34.82 51.25 34.73L51.25 34.73Q55.16 34.73 58.19 36.67Q61.22 38.60 62.96 42.02Q64.71 45.44 64.71 49.83L64.71 49.83Q64.71 54.21 62.94 57.70Q61.18 61.18 58.08 63.18Q54.99 65.18 50.99 65.27ZM50.90 62.90L50.90 62.90Q54.09 62.90 56.54 61.22Q58.99 59.55 60.38 56.60Q61.78 53.65 61.78 49.87L61.78 49.87Q61.78 46.17 60.43 43.29Q59.07 40.41 56.71 38.78Q54.34 37.14 51.29 37.14L51.29 37.14Q48.15 37.14 45.68 38.82Q43.21 40.50 41.81 43.42Q40.41 46.34 40.41 50.13L40.41 50.13Q40.41 53.83 41.77 56.71Q43.12 59.59 45.49 61.24Q47.85 62.90 50.90 62.90ZM57.27 38.99L46.78 63.07L44.63 62.04L55.25 37.83L57.27 38.99ZM88.53 38.39L89.39 36.41Q88.57 35.85 87.24 35.51Q85.91 35.16 84.53 34.99Q83.15 34.82 82.25 34.82L82.25 34.82Q79.11 34.82 76.57 36.00Q74.04 37.19 72.25 39.29Q70.47 41.40 69.52 44.19Q68.58 46.99 68.58 50.21L68.58 50.21Q68.58 53.18 69.41 55.89Q70.25 58.60 71.93 60.71Q73.61 62.81 76.12 64.04Q78.64 65.27 81.99 65.27L81.99 65.27Q83.24 65.27 84.64 65.05Q86.03 64.83 87.30 64.47Q88.57 64.10 89.39 63.67L89.39 63.67L88.36 61.61Q87.20 62.13 85.71 62.51Q84.23 62.90 81.91 62.90L81.91 62.90Q79.41 62.90 77.46 61.91Q75.50 60.92 74.17 59.16Q72.83 57.40 72.12 55.10Q71.41 52.79 71.41 50.17L71.41 50.17Q71.41 46.39 72.85 43.46Q74.30 40.54 76.77 38.84Q79.24 37.14 82.29 37.14L82.29 37.14Q83.84 37.14 84.89 37.29Q85.95 37.44 86.81 37.72Q87.67 38.00 88.53 38.39L88.53 38.39Z"></path></svg>